<svg width="16" height="16" xmlns="http://www.w3.org/2000/svg" fill="none">
 <g id="Layer_1">
  <title>Layer 1</title>
  <path stroke="#020202" id="svg_3" fill="none" d="m7.53158,12.88497l0.46842,0.4015l0.46842,-0.4015l0.73609,-0.66917l0,0l0,0c1.27143,-1.1376 2.40903,-2.07444 3.21204,-3.01129c0.80301,-0.93684 1.33835,-1.94061 1.33835,-3.0782c0,-1.94061 -1.5391,-3.41279 -3.47971,-3.41279c-0.80301,0 -1.60602,0.26767 -2.27519,0.73609c-0.66917,-0.46842 -1.47218,-0.73609 -2.27519,-0.73609c-1.94061,0 -3.47971,1.47218 -3.47971,3.41279c0,1.1376 0.53534,2.14136 1.33835,3.0782c0.80301,0.93684 1.94061,1.94061 3.21204,3.01129l0,0l0,0l0.73609,0.66917z" class="st1"/>
 </g>
</svg>